<?xml version="1.0" encoding="UTF-8" standalone="no"?>
<!DOCTYPE svg PUBLIC "-//W3C//DTD SVG 1.1//EN"
 "http://www.w3.org/Graphics/SVG/1.1/DTD/svg11.dtd">
<!-- Generated by graphviz version 2.43.0 (0)
 -->
<!-- Title: db::resultset Pages: 1 -->
<svg width="347pt" height="240pt"
 viewBox="0.00 0.00 346.50 240.00" xmlns="http://www.w3.org/2000/svg" xmlns:xlink="http://www.w3.org/1999/xlink">
<g id="graph0" class="graph" transform="scale(1 1) rotate(0) translate(4 236)">
<title>db::resultset</title>
<!-- Node1 -->
<g id="node1" class="node">
<title>Node1</title>
<g id="a_node1"><a xlink:title="Definition of a result set. Supports iteration and accessing its rows via operator[] and at()....">
<polygon fill="#bfbfbf" stroke="black" points="129,-0.5 129,-19.5 206,-19.5 206,-0.5 129,-0.5"/>
<text text-anchor="middle" x="167.5" y="-7.5" font-family="Helvetica,sans-Serif" font-size="10.00">db::resultset</text>
</a>
</g>
</g>
<!-- Node2 -->
<g id="node2" class="node">
<title>Node2</title>
<g id="a_node2"><a xlink:title=" ">
<polygon fill="none" stroke="#bfbfbf" points="50,-67.5 50,-86.5 95,-86.5 95,-67.5 50,-67.5"/>
<text text-anchor="middle" x="72.5" y="-74.5" font-family="Helvetica,sans-Serif" font-size="10.00">size_t</text>
</a>
</g>
</g>
<!-- Node2&#45;&gt;Node1 -->
<g id="edge1" class="edge">
<title>Node2&#45;&gt;Node1</title>
<path fill="none" stroke="#9a32cd" stroke-dasharray="5,2" d="M78.27,-57.78C81.26,-50.8 85.56,-43.25 91.5,-38 101.99,-28.72 115.88,-22.57 128.91,-18.52"/>
<polygon fill="#9a32cd" stroke="#9a32cd" points="74.94,-56.68 74.78,-67.28 81.51,-59.09 74.94,-56.68"/>
<text text-anchor="middle" x="127.5" y="-41" font-family="Helvetica,sans-Serif" font-size="10.00"> affected_rows</text>
</g>
<!-- Node3 -->
<g id="node3" class="node">
<title>Node3</title>
<g id="a_node3"><a xlink:title=" ">
<polygon fill="none" stroke="#bfbfbf" points="113,-67.5 113,-86.5 222,-86.5 222,-67.5 113,-67.5"/>
<text text-anchor="middle" x="167.5" y="-74.5" font-family="Helvetica,sans-Serif" font-size="10.00">std::vector&lt; row &gt;</text>
</a>
</g>
</g>
<!-- Node3&#45;&gt;Node1 -->
<g id="edge2" class="edge">
<title>Node3&#45;&gt;Node1</title>
<path fill="none" stroke="#9a32cd" stroke-dasharray="5,2" d="M167.5,-57.04C167.5,-44.67 167.5,-29.12 167.5,-19.63"/>
<polygon fill="#9a32cd" stroke="#9a32cd" points="164,-57.23 167.5,-67.23 171,-57.23 164,-57.23"/>
<text text-anchor="middle" x="181" y="-41" font-family="Helvetica,sans-Serif" font-size="10.00"> rows</text>
</g>
<!-- Node4 -->
<g id="node4" class="node">
<title>Node4</title>
<g id="a_node4"><a xlink:title=" ">
<polygon fill="none" stroke="#bfbfbf" points="0,-140 0,-159 101,-159 101,-140 0,-140"/>
<text text-anchor="middle" x="50.5" y="-147" font-family="Helvetica,sans-Serif" font-size="10.00">std::map&lt; K, T &gt;</text>
</a>
</g>
</g>
<!-- Node4&#45;&gt;Node3 -->
<g id="edge3" class="edge">
<title>Node4&#45;&gt;Node3</title>
<path fill="none" stroke="#9a32cd" stroke-dasharray="5,2" d="M70.72,-133.79C83.11,-125.03 99.43,-113.91 114.5,-105 125.7,-98.38 138.71,-91.73 149.04,-86.69"/>
<polygon fill="#9a32cd" stroke="#9a32cd" points="68.57,-131.03 62.47,-139.69 72.64,-136.72 68.57,-131.03"/>
<text text-anchor="middle" x="139" y="-108" font-family="Helvetica,sans-Serif" font-size="10.00"> elements</text>
</g>
<!-- Node5 -->
<g id="node5" class="node">
<title>Node5</title>
<g id="a_node5"><a xlink:title=" ">
<polygon fill="none" stroke="#bfbfbf" points="32,-212.5 32,-231.5 61,-231.5 61,-212.5 32,-212.5"/>
<text text-anchor="middle" x="46.5" y="-219.5" font-family="Helvetica,sans-Serif" font-size="10.00">K</text>
</a>
</g>
</g>
<!-- Node5&#45;&gt;Node4 -->
<g id="edge4" class="edge">
<title>Node5&#45;&gt;Node4</title>
<path fill="none" stroke="#9a32cd" stroke-dasharray="5,2" d="M46.76,-201.78C46.91,-195.76 47.14,-189.1 47.5,-183 47.98,-174.85 48.87,-165.59 49.56,-159.04"/>
<polygon fill="#9a32cd" stroke="#9a32cd" points="43.25,-202.18 46.57,-212.24 50.25,-202.31 43.25,-202.18"/>
<text text-anchor="middle" x="60.5" y="-186" font-family="Helvetica,sans-Serif" font-size="10.00"> keys</text>
</g>
<!-- Node6 -->
<g id="node6" class="node">
<title>Node6</title>
<g id="a_node6"><a xlink:title=" ">
<polygon fill="none" stroke="#bfbfbf" points="117,-212.5 117,-231.5 146,-231.5 146,-212.5 117,-212.5"/>
<text text-anchor="middle" x="131.5" y="-219.5" font-family="Helvetica,sans-Serif" font-size="10.00">T</text>
</a>
</g>
</g>
<!-- Node6&#45;&gt;Node4 -->
<g id="edge5" class="edge">
<title>Node6&#45;&gt;Node4</title>
<path fill="none" stroke="#9a32cd" stroke-dasharray="5,2" d="M109.21,-206.69C103.6,-202.79 97.69,-198.41 92.5,-194 79.54,-182.99 66.16,-168.49 58.09,-159.33"/>
<polygon fill="#9a32cd" stroke="#9a32cd" points="107.41,-209.7 117.66,-212.38 111.32,-203.89 107.41,-209.7"/>
<text text-anchor="middle" x="117" y="-186" font-family="Helvetica,sans-Serif" font-size="10.00"> elements</text>
</g>
<!-- Node7 -->
<g id="node7" class="node">
<title>Node7</title>
<g id="a_node7"><a xlink:title=" ">
<polygon fill="none" stroke="#bfbfbf" points="119,-140 119,-159 216,-159 216,-140 119,-140"/>
<text text-anchor="middle" x="167.5" y="-147" font-family="Helvetica,sans-Serif" font-size="10.00">std::vector&lt; T &gt;</text>
</a>
</g>
</g>
<!-- Node6&#45;&gt;Node7 -->
<g id="edge7" class="edge">
<title>Node6&#45;&gt;Node7</title>
<path fill="none" stroke="#9a32cd" stroke-dasharray="5,2" d="M140.56,-203.58C142.21,-200.4 143.91,-197.1 145.5,-194 151.67,-181.95 158.72,-167.97 163.14,-159.18"/>
<polygon fill="#9a32cd" stroke="#9a32cd" points="137.44,-202.01 135.94,-212.5 143.65,-205.24 137.44,-202.01"/>
<text text-anchor="middle" x="176" y="-186" font-family="Helvetica,sans-Serif" font-size="10.00"> elements</text>
</g>
<!-- Node7&#45;&gt;Node3 -->
<g id="edge6" class="edge">
<title>Node7&#45;&gt;Node3</title>
<path fill="none" stroke="orange" stroke-dasharray="5,2" d="M167.5,-129.44C167.5,-115.53 167.5,-97.32 167.5,-86.72"/>
<polygon fill="orange" stroke="orange" points="164,-129.86 167.5,-139.86 171,-129.86 164,-129.86"/>
<text text-anchor="middle" x="189.5" y="-108" font-family="Helvetica,sans-Serif" font-size="10.00"> &lt; row &gt;</text>
</g>
<!-- Node8 -->
<g id="node8" class="node">
<title>Node8</title>
<g id="a_node8"><a xlink:title=" ">
<polygon fill="none" stroke="#bfbfbf" points="247,-67.5 247,-86.5 312,-86.5 312,-67.5 247,-67.5"/>
<text text-anchor="middle" x="279.5" y="-74.5" font-family="Helvetica,sans-Serif" font-size="10.00">std::string</text>
</a>
</g>
</g>
<!-- Node8&#45;&gt;Node1 -->
<g id="edge8" class="edge">
<title>Node8&#45;&gt;Node1</title>
<path fill="none" stroke="#9a32cd" stroke-dasharray="5,2" d="M255.58,-62.12C233.39,-49.24 201.06,-30.48 182.37,-19.63"/>
<polygon fill="#9a32cd" stroke="#9a32cd" points="253.99,-65.24 264.4,-67.23 257.5,-59.19 253.99,-65.24"/>
<text text-anchor="middle" x="244" y="-41" font-family="Helvetica,sans-Serif" font-size="10.00"> error</text>
</g>
<!-- Node9 -->
<g id="node9" class="node">
<title>Node9</title>
<g id="a_node9"><a xlink:title=" ">
<polygon fill="none" stroke="#bfbfbf" points="234.5,-134.5 234.5,-164.5 338.5,-164.5 338.5,-134.5 234.5,-134.5"/>
<text text-anchor="start" x="242.5" y="-152.5" font-family="Helvetica,sans-Serif" font-size="10.00">std::basic_string&lt;</text>
<text text-anchor="middle" x="286.5" y="-141.5" font-family="Helvetica,sans-Serif" font-size="10.00"> Char &gt;</text>
</a>
</g>
</g>
<!-- Node9&#45;&gt;Node8 -->
<g id="edge9" class="edge">
<title>Node9&#45;&gt;Node8</title>
<path fill="none" stroke="midnightblue" d="M284.08,-124.09C282.8,-111.21 281.31,-96.2 280.38,-86.89"/>
<polygon fill="midnightblue" stroke="midnightblue" points="280.61,-124.63 285.08,-134.23 287.58,-123.94 280.61,-124.63"/>
</g>
</g>
</svg>
